<svg width="32" height="33" viewBox="0 0 32 33" fill="none" xmlns="http://www.w3.org/2000/svg">
<path d="M16 20.5333C18.2091 20.5333 20 18.6947 20 16.4267C20 14.1586 18.2091 12.32 16 12.32C13.7909 12.32 12 14.1586 12 16.4267C12 18.6947 13.7909 20.5333 16 20.5333Z" stroke="#6C63FF" stroke-width="1.5" stroke-miterlimit="10" stroke-linecap="round" stroke-linejoin="round"/>
<path d="M2.66675 17.6313V15.222C2.66675 13.7984 3.80008 12.6212 5.20008 12.6212C7.61341 12.6212 8.60008 10.869 7.38675 8.71982C6.69341 7.48782 7.10675 5.88622 8.32008 5.1744L10.6267 3.8192C11.6801 3.17582 13.0401 3.55911 13.6667 4.64053L13.8134 4.90062C15.0134 7.04978 16.9867 7.04978 18.2001 4.90062L18.3467 4.64053C18.9734 3.55911 20.3334 3.17582 21.3867 3.8192L23.6934 5.1744C24.9067 5.88622 25.3201 7.48782 24.6267 8.71982C23.4134 10.869 24.4001 12.6212 26.8134 12.6212C28.2001 12.6212 29.3467 13.7847 29.3467 15.222V17.6313C29.3467 19.0549 28.2134 20.2322 26.8134 20.2322C24.4001 20.2322 23.4134 21.9844 24.6267 24.1335C25.3201 25.3792 24.9067 26.9671 23.6934 27.6789L21.3867 29.0341C20.3334 29.6775 18.9734 29.2942 18.3467 28.2128L18.2001 27.9527C17.0001 25.8036 15.0267 25.8036 13.8134 27.9527L13.6667 28.2128C13.0401 29.2942 11.6801 29.6775 10.6267 29.0341L8.32008 27.6789C7.10675 26.9671 6.69341 25.3655 7.38675 24.1335C8.60008 21.9844 7.61341 20.2322 5.20008 20.2322C3.80008 20.2322 2.66675 19.0549 2.66675 17.6313Z" stroke="#6C63FF" stroke-width="1.5" stroke-miterlimit="10" stroke-linecap="round" stroke-linejoin="round"/>
</svg>
